<svg width="64" height="64" viewBox="0 0 64 64" fill="none" xmlns="http://www.w3.org/2000/svg">
<path d="M0 11C0 4.92487 4.92487 0 11 0H53C59.0751 0 64 4.92487 64 11V53C64 59.0751 59.0751 64 53 64H11C4.92487 64 0 59.0751 0 53V11Z" fill="#5E6472"/>
<path d="M28.424 21.264C29.032 21.264 29.664 21.376 30.32 21.6C30.976 21.824 31.552 22.112 32.048 22.464C31.888 23.28 31.736 24.016 31.592 24.672C31.464 25.328 31.344 25.928 31.232 26.472C31.12 27 31.008 27.488 30.896 27.936C30.8 28.368 30.704 28.776 30.608 29.16C30.224 30.6 29.824 31.904 29.408 33.072C29.008 34.224 28.576 35.264 28.112 36.192C27.664 37.12 27.184 37.944 26.672 38.664C26.176 39.384 25.64 40.016 25.064 40.56C24.504 41.088 23.944 41.52 23.384 41.856C22.824 42.192 22.304 42.408 21.824 42.504C21.184 42.504 20.592 42.432 20.048 42.288C19.504 42.144 19.032 41.944 18.632 41.688C18.248 41.448 17.944 41.152 17.72 40.8C17.512 40.464 17.408 40.088 17.408 39.672C17.408 39.224 17.52 38.664 17.744 37.992C17.968 37.304 18.312 36.496 18.776 35.568C18.968 35.584 19.192 35.632 19.448 35.712C19.704 35.792 19.96 35.888 20.216 36C20.472 36.112 20.704 36.24 20.912 36.384C21.12 36.512 21.272 36.64 21.368 36.768C20.856 37.296 20.44 37.88 20.12 38.52C19.8 39.144 19.64 39.688 19.64 40.152C19.64 40.424 19.688 40.664 19.784 40.872C19.896 41.096 20.08 41.296 20.336 41.472C21.312 41.104 22.264 40.416 23.192 39.408C24.12 38.416 24.944 37.176 25.664 35.688C26.096 34.808 26.488 33.8 26.84 32.664C27.192 31.528 27.488 30.392 27.728 29.256C27.984 28.104 28.176 27.008 28.304 25.968C28.448 24.912 28.52 24.024 28.52 23.304C28.52 23.192 28.512 23.04 28.496 22.848C28.496 22.64 28.488 22.432 28.472 22.224C28.472 22 28.464 21.8 28.448 21.624C28.432 21.448 28.424 21.328 28.424 21.264Z" fill="#FFA69E"/>
<path d="M32.6893 34.296C32.6893 33.176 32.8172 32.08 33.0732 31.008C33.3452 29.92 33.7213 28.896 34.2013 27.936C34.6813 26.96 35.2493 26.072 35.9053 25.272C36.5773 24.456 37.3052 23.752 38.0892 23.16C38.8892 22.568 39.7373 22.112 40.6333 21.792C41.5293 21.456 42.4493 21.288 43.3932 21.288C44.4972 21.288 45.3532 21.52 45.9613 21.984C46.5852 22.448 46.8973 23.096 46.8973 23.928C46.8973 24.248 46.8492 24.576 46.7533 24.912C46.6733 25.248 46.5453 25.584 46.3693 25.92C46.2093 26.24 46.0173 26.552 45.7933 26.856C45.5693 27.16 45.3213 27.424 45.0493 27.648C44.6333 27.584 44.2732 27.4 43.9692 27.096C43.6652 26.776 43.4733 26.408 43.3932 25.992C43.9532 25.528 44.3932 25.048 44.7132 24.552C45.0492 24.04 45.2173 23.576 45.2173 23.16C45.2173 22.456 44.7773 22.104 43.8973 22.104C43.5293 22.104 43.1453 22.184 42.7453 22.344C42.3612 22.488 41.9693 22.696 41.5693 22.968C41.1693 23.24 40.7772 23.568 40.3932 23.952C40.0252 24.336 39.6813 24.76 39.3613 25.224C37.1373 28.424 36.0252 31.696 36.0252 35.04C36.0252 36.224 36.2093 37.176 36.5773 37.896C36.9453 38.616 37.4333 39.04 38.0413 39.168C38.7293 39.008 39.6012 38.568 40.6572 37.848C41.7132 37.128 42.8653 36.192 44.1133 35.04C44.2733 35.2 44.3693 35.368 44.4013 35.544C43.9373 36.152 43.4572 36.736 42.9613 37.296C42.4653 37.856 41.9693 38.368 41.4733 38.832C40.9933 39.296 40.5132 39.704 40.0332 40.056C39.5692 40.408 39.1373 40.68 38.7373 40.872C36.7533 40.84 35.2493 40.272 34.2253 39.168C33.2013 38.064 32.6893 36.44 32.6893 34.296Z" fill="#FFA69E"/>
</svg>
