<svg width="120" height="120" viewBox="0 0 120 120" fill="none" xmlns="http://www.w3.org/2000/svg">
<path d="M120 60C120 93.1371 93.1371 120 60 120C26.8629 120 0 93.1371 0 60C0 26.8629 26.8629 0 60 0C93.1371 0 120 26.8629 120 60Z" fill="#09BC8A"/>
<path d="M28.5812 84.8372C24.128 84.8372 20.7107 83.9204 18.3293 82.0867C15.9717 80.2292 14.5786 77.3358 14.15 73.4065C14.0547 72.4063 14.269 71.6324 14.7929 71.0847C15.3168 70.5369 16.0789 70.2631 17.0791 70.2631C18.9127 70.2631 19.9367 71.2633 20.1511 73.2636C20.4368 75.4307 21.2108 76.9072 22.4729 77.693C23.7351 78.4551 25.7712 78.8361 28.5812 78.8361H34.5109C36.7256 78.8361 38.4521 78.586 39.6904 78.086C40.9526 77.5859 41.8337 76.7167 42.3338 75.4783C42.8339 74.24 43.0839 72.5016 43.0839 70.2631V39.4002C43.0839 37.3998 44.0841 36.3996 46.0845 36.3996C48.0848 36.3996 49.085 37.3998 49.085 39.4002V70.2631C49.085 75.2878 47.9062 78.979 45.5487 81.3366C43.1911 83.6703 39.5118 84.8372 34.5109 84.8372H28.5812Z" fill="#EEFCF8"/>
<path d="M77.8811 84.8372C72.4277 84.8372 68.3913 83.5394 65.7717 80.9436C63.176 78.3241 61.8781 74.2876 61.8781 68.8342V52.4026C61.8781 46.9016 63.176 42.8532 65.7717 40.2575C68.3674 37.638 72.3801 36.352 77.8097 36.3996H86.4541C90.9312 36.3996 94.3485 37.3284 96.7061 39.1859C99.0636 41.0195 100.433 43.9248 100.814 47.9018C100.957 48.902 100.766 49.664 100.242 50.1879C99.7185 50.7118 98.9565 50.9738 97.9563 50.9738C96.1464 50.9738 95.0986 49.9736 94.8128 47.9732C94.5747 45.7823 93.8127 44.3059 92.5267 43.5438C91.2646 42.7818 89.2404 42.4007 86.4541 42.4007H77.8097C75.2854 42.3769 73.2969 42.6627 71.8443 43.258C70.4154 43.8534 69.3914 44.8893 68.7723 46.3658C68.1769 47.8184 67.8793 49.8307 67.8793 52.4026V68.8342C67.8793 71.3823 68.1769 73.3827 68.7723 74.8354C69.3914 76.288 70.4274 77.3239 71.88 77.9431C73.3327 78.5384 75.333 78.8361 77.8811 78.8361H86.4541C89.2404 78.8361 91.2646 78.4551 92.5267 77.693C93.8127 76.9072 94.5747 75.4307 94.8128 73.2636C95.0986 71.2633 96.1464 70.2631 97.9563 70.2631C98.9565 70.2631 99.7185 70.525 100.242 71.0489C100.766 71.5728 100.957 72.3349 100.814 73.3351C100.433 77.3358 99.0636 80.253 96.7061 82.0867C94.3485 83.9204 90.9312 84.8372 86.4541 84.8372H77.8811Z" fill="#EEFCF8"/>
<path d="M30.8138 87.6279C26.3606 87.6279 22.9433 86.7111 20.5619 84.8774C18.2043 83.0199 16.8112 80.1265 16.3825 76.1972C16.2873 75.197 16.5016 74.4231 17.0255 73.8754C17.5494 73.3276 18.3114 73.0538 19.3116 73.0538C21.1453 73.0538 22.1693 74.054 22.3836 76.0543C22.6694 78.2214 23.4433 79.6979 24.7055 80.4837C25.9676 81.2458 28.0037 81.6268 30.8138 81.6268H36.7434C38.9581 81.6268 40.6847 81.3767 41.923 80.8767C43.1851 80.3766 44.0662 79.5074 44.5663 78.269C45.0664 77.0307 45.3165 75.2923 45.3165 73.0538V42.1909C45.3165 40.1905 46.3167 39.1903 48.317 39.1903C50.3174 39.1903 51.3176 40.1905 51.3176 42.1909V73.0538C51.3176 78.0785 50.1388 81.7697 47.7812 84.1273C45.4236 86.461 41.7444 87.6279 36.7434 87.6279H30.8138Z" fill="#EEFCF8" fill-opacity="0.27"/>
<path d="M80.1137 87.6279C74.6603 87.6279 70.6238 86.3301 68.0043 83.7343C65.4086 81.1148 64.1107 77.0783 64.1107 71.6249V55.1933C64.1107 49.6923 65.4086 45.6439 68.0043 43.0482C70.6 40.4287 74.6127 39.1427 80.0422 39.1903H88.6867C93.1637 39.1903 96.581 40.1191 98.9386 41.9766C101.296 43.8102 102.665 46.7155 103.047 50.6925C103.189 51.6927 102.999 52.4547 102.475 52.9786C101.951 53.5025 101.189 53.7645 100.189 53.7645C98.379 53.7645 97.3312 52.7643 97.0454 50.7639C96.8073 48.573 96.0452 47.0966 94.7593 46.3345C93.4971 45.5725 91.4729 45.1914 88.6867 45.1914H80.0422C77.518 45.1676 75.5295 45.4534 74.0768 46.0487C72.648 46.6441 71.624 47.68 71.0048 49.1565C70.4095 50.6091 70.1118 52.6214 70.1118 55.1933V71.6249C70.1118 74.173 70.4095 76.1734 71.0048 77.6261C71.624 79.0787 72.6599 80.1146 74.1126 80.7338C75.5652 81.3291 77.5656 81.6268 80.1137 81.6268H88.6867C91.4729 81.6268 93.4971 81.2458 94.7593 80.4837C96.0452 79.6979 96.8073 78.2214 97.0454 76.0543C97.3312 74.054 98.379 73.0538 100.189 73.0538C101.189 73.0538 101.951 73.3157 102.475 73.8396C102.999 74.3635 103.189 75.1256 103.047 76.1258C102.665 80.1265 101.296 83.0437 98.9386 84.8774C96.581 86.7111 93.1637 87.6279 88.6867 87.6279H80.1137Z" fill="#EEFCF8" fill-opacity="0.27"/>
</svg>
